<svg xmlns="http://www.w3.org/2000/svg" xmlns:xlink="http://www.w3.org/1999/xlink" width="660" height="599" viewBox="0 0 660 599">
    <defs>
        <path id="a" d="M0 593V0h487v593z"/>
        <path id="c" d="M63.041.96H0V64h63.041z"/>
    </defs>
    <g fill="none" fill-rule="evenodd">
        <g transform="translate(0 6)">
            <mask id="b" fill="#fff">
                <use xlink:href="#a"/>
            </mask>
            <path fill="#000" stroke="#DB6363" stroke-width="12" d="M243.504 287.51c-26.024 0-47.123 12.871-47.123 28.746 0 7.838 5.153 14.931 13.483 20.116 8.55 5.322 20.453 8.637 33.64 8.637 13.186 0 25.089-3.315 33.64-8.637 8.33-5.185 13.482-12.278 13.482-20.116 0-15.875-21.098-28.746-47.122-28.746m-22.46-103.1c-3.352-5.322-10.397-6.91-15.725-3.543-28.905 18.285-61.534-.661-62.91-1.475-5.38-3.223-12.365-1.482-15.61 3.9-3.254 5.39-1.52 12.4 3.876 15.654 1.238.746 21.403 12.644 46.887 12.644 12.563 0 26.427-2.897 39.948-11.45 5.32-3.368 6.901-10.408 3.534-15.73m123.515-5.002c-.342.205-33.708 19.911-62.87 1.46-5.321-3.369-12.36-1.795-15.726 3.542-3.375 5.322-1.786 12.362 3.534 15.73 13.521 8.56 27.377 11.45 39.948 11.45 25.477 0 45.649-11.898 46.887-12.644 5.397-3.253 7.13-10.263 3.877-15.653-3.253-5.406-10.269-7.14-15.65-3.885m19.754-124.73l-2.052-.532-1.71-1.24c-27.408-19.69-67.88-30.098-117.047-30.098-49.175 0-89.648 10.408-117.048 30.099l-1.717 1.24-2.052.531c-31.04 8.12-102.903 32.228-99.772 80.611.965 14.97 1.604 31.468 1.893 49.022.235 14.042 7.456 22.451 14.068 24.321 5.495 1.559 10.816-1.186 14.958-7.694l30.41-47.722 6.961 24.36a147.315 147.315 0 0 0 18.652 40.56l1.991 3.025-.121 3.62c-.03.95-.084 1.885-.137 2.827-.061.996-.13 2-.13 3.019 0 39.899 14.343 76.087 37.509 102.643 2.614 3.003 5.373 5.84 8.208 8.584a136.551 136.551 0 0 0 9.417 8.294c21.692 17.418 48.203 27.81 76.91 27.81 28.699 0 55.217-10.392 76.901-27.81a136.67 136.67 0 0 0 9.425-8.294c2.835-2.745 5.586-5.588 8.208-8.584 23.166-26.563 37.508-62.744 37.508-102.643 0-1.019-.068-2.023-.129-3.019a86.937 86.937 0 0 1-.144-2.828l-.114-3.619 1.984-3.018a147.663 147.663 0 0 0 18.643-40.568l6.97-24.343 30.41 47.699c4.15 6.53 9.5 9.26 14.965 7.701 6.605-1.87 13.825-10.279 14.053-24.32.312-17.753.95-34.243 1.908-49.03 3.124-48.376-68.739-72.484-99.78-80.604m122.536 82.079c-.935 14.43-1.566 30.555-1.862 47.942-.373 22.36-12.686 40.804-30.653 45.882-15.33 4.31-30.812-2.326-40.404-17.387l-4.393-6.896a170.96 170.96 0 0 1-11.287 21.181c.053 1.042.099 2.083.099 3.148 0 43.844-15.178 83.857-40.055 114.055 73.003 46.24 122.543 135.084 122.543 236.914 0 6.295-5.108 11.404-11.401 11.404s-11.393-5.101-11.4-11.396v-.008c0-95.58-47.055-178.663-115.771-220.044-26.822 24.473-61.252 39.215-98.76 39.215-37.509 0-71.939-14.742-98.76-39.207C76.026 402.933 28.972 486.015 28.972 581.596v.008c0 6.295-5.1 11.396-11.4 11.396-6.302 0-11.402-5.109-11.402-11.404 0-101.822 49.54-190.675 122.543-236.914-24.877-30.198-40.055-70.21-40.055-114.055 0-1.065.038-2.099.099-3.14a171.61 171.61 0 0 1-11.302-21.181l-4.385 6.888c-9.592 15.053-25.051 21.713-40.397 17.387-17.967-5.078-30.295-23.523-30.668-45.89-.28-17.197-.904-33.322-1.854-47.934-4.135-64.152 77.243-93.528 114.752-103.61C146.119 11.45 190.52 0 243.504 0c52.975 0 97.384 11.45 128.6 33.148 37.508 10.08 118.886 39.45 114.744 103.609" mask="url(#b)"/>
        </g>
        <g transform="translate(493)">
            <mask id="d" fill="#fff">
                <use xlink:href="#c"/>
            </mask>
            <path fill="#000" stroke="#DB6363" stroke-width="6" d="M2.163 51.394L37.83 15.727H7.49A7.381 7.381 0 0 1 .104 8.342 7.384 7.384 0 0 1 7.489.958h48.168a7.376 7.376 0 0 1 6.818 4.558 7.379 7.379 0 0 1-1.6 8.05L25.213 49.233h30.444a7.384 7.384 0 1 1 0 14.77H7.387a7.387 7.387 0 0 1-5.224-12.609" mask="url(#d)"/>
        </g>
        <path fill="#000" stroke="#DB6363" stroke-width="6" d="M559.565 54.42A7.415 7.415 0 0 0 566.42 59h38.159a7.42 7.42 0 1 0 0-14.84h-20.247l25.495-25.496A7.42 7.42 0 0 0 604.58 6h-38.075c-4.1 0-7.42 3.32-7.42 7.42 0 4.101 3.32 7.42 7.42 7.42h20.163l-25.495 25.491a7.423 7.423 0 0 0-1.608 8.088"/>
        <path fill="#000" stroke="#DB6363" stroke-width="6" d="M613.56 49.461A7.355 7.355 0 0 0 620.353 54h29.294a7.352 7.352 0 1 0 0-14.704H638.1l16.747-16.748a7.347 7.347 0 0 0 1.593-8.01A7.347 7.347 0 0 0 649.647 10h-29.235a7.352 7.352 0 1 0 0 14.704H631.9l-16.747 16.743a7.355 7.355 0 0 0-1.593 8.014"/>
    </g>
</svg>